{"title":"[MARATHI] Laganachi Bedi - Drama x264 MP3 [TMB]","uid":8675467,"size":777108728,"categoryP":"video","categoryS":"movies","magnet":"?xt=urn:btih:3aeb9c79910530483318ca4c3309cacea0005ed3&amp;dn=%5BMARATHI%5D+Laganachi+Bedi+-+Drama+x264+MP3+%5BTMB%5D&amp;tr=udp%3A%2F%2Ftracker.openbittorrent.com%3A80&amp;tr=udp%3A%2F%2Fopen.demonii.com%3A1337&amp;tr=udp%3A%2F%2Ftracker.coppersurfer.tk%3A6969&amp;tr=udp%3A%2F%2Fexodus.desync.com%3A6969","seeders":0,"leechers":1,"uploader":"SJonam","files":2,"time":1373579929,"description":" &lt;a href=&quot;http://desibbrg.org/images/16358683858652693851.gif&quot; rel=&quot;nofollow&quot; target=&quot;_NEW&quot;&gt;http://desibbrg.org/images/16358683858652693851.gif&lt;/a&gt; &lt;a href=&quot;\nhttp://desibbrg.org/images/86086055893602731091.png&quot; rel=&quot;nofollow&quot; target=&quot;_NEW&quot;&gt;\nhttp://desibbrg.org/images/86086055893602731091.png&lt;/a&gt; &lt;a href=&quot;\nhttp://desibbrg.org/images/27824380091654142138.png&quot; rel=&quot;nofollow&quot; target=&quot;_NEW&quot;&gt;\nhttp://desibbrg.org/images/27824380091654142138.png&lt;/a&gt; &lt;a href=&quot;\nhttp://desibbrg.org/images/84868333604087943543.png&quot; rel=&quot;nofollow&quot; target=&quot;_NEW&quot;&gt;\nhttp://desibbrg.org/images/84868333604087943543.png&lt;/a&gt; &lt;a href=&quot;\nhttp://desibbrg.org/images/80853638140577393584.png&quot; rel=&quot;nofollow&quot; target=&quot;_NEW&quot;&gt;\nhttp://desibbrg.org/images/80853638140577393584.png&lt;/a&gt; &lt;a href=&quot;\nhttp://desibbrg.org/images/48034302925616553612.png&quot; rel=&quot;nofollow&quot; target=&quot;_NEW&quot;&gt;\nhttp://desibbrg.org/images/48034302925616553612.png&lt;/a&gt;\n\nCast n Crew - \nWriter: Acharya Atre\nStarring: Madhukar Toraadmal, Ashvini Bhave, Prashant Damle,Sanjay Mone\nDirector: Mangesh Kadam\n\nPlot - \nLaganachi Bedi is a classic Marathi Comedy Natak. Enjoy this wonderful comic play which revolves around a married couple.Kanchan , a married doctor is involved in an extra marital affair and for that he leaves his wife. His wife howewer loves him a lot and decides to teach him a lesson with a help of a friend and makes Kanchan realise his mistake.\n\nMedia Info - \nGeneral\nComplete name                  : Laganachi Bedi - Drama x264 MP3 [TMB].avi\nFormat                         : AVI\nFormat/Info                    : Audio Video Interleave\nFile size                      : 732 MiB\nDuration                       : 2h 35mn\nOverall bit rate               : 660 Kbps\nWriting application            : Lavf54.63.104\n\nVideo\nFormat                         : AVC\nFormat/Info                    : Advanced Video Codec\nFormat profile                 : &lt;a class=&quot;__cf_email__&quot; href=&quot;/cdn-cgi/l/email-protection&quot; data-cfemail=&quot;0b43626c634b4738253b&quot;&gt;[email&amp;#160;protected]&lt;/a&gt;&lt;script cf-hash='f9e31' type=&quot;text/javascript&quot;&gt;\n/* &lt;![CDATA[ */!function(){try{var t=&quot;currentScript&quot;in document?document.currentScript:function(){for(var t=document.getElementsByTagName(&quot;script&quot;),e=t.length;e--;)if(t[e].getAttribute(&quot;cf-hash&quot;))return t[e]}();if(t&amp;&amp;t.previousSibling){var e,r,n,i,c=t.previousSibling,a=c.getAttribute(&quot;data-cfemail&quot;);if(a){for(e=&quot;&quot;,r=parseInt(a.substr(0,2),16),n=2;a.length-n;n+=2)i=parseInt(a.substr(n,2),16)^r,e+=String.fromCharCode(i);e=document.createTextNode(e),c.parentNode.replaceChild(e,c)}}}catch(u){}}();/* ]]&gt; */&lt;/script&gt;\nFormat settings, CABAC         : Yes\nFormat settings, ReFrames      : 1 frame\nCodec ID                       : H264\nDuration                       : 2h 35mn\nBit rate                       : 392 Kbps\nWidth                          : 632 pixels\nHeight                         : 472 pixels\nDisplay aspect ratio           : 4:3\nFrame rate mode                : Variable\nFrame rate                     : 25.000 fps\nColor space                    : YUV\nChroma subsampling             : 4:2:0\nBit depth                      : 8 bits\nScan type                      : Progressive\nBits/(Pixel*Frame)             : 0.053\nStream size                    : 434 MiB (59%)\nWriting library                : x264 core 129\n\nAudio\nFormat                         : MPEG Audio\nFormat version                 : Version 1\nFormat profile                 : Layer 3\nMode                           : Joint stereo\nMode extension                 : MS Stereo\nCodec ID                       : 55\nCodec ID/Hint                  : MP3\nDuration                       : 2h 35mn\nBit rate mode                  : Constant\nBit rate                       : 256 Kbps\nChannel(s)                     : 2 channels\nSampling rate                  : 44.1 KHz\nCompression mode               : Lossy\nStream size                    : 284 MiB (39%)\nAlignment                      : Aligned on interleaves\nInterleave, duration           : 26 ms (0.65 video frame)\nWriting library                : LAME3.99.5\n\nRipper : Manojvb\n\nSeeding will be very slow for first few hours ;)\n &lt;a href=&quot;\nhttp://desibbrg.org/images/48627592875446061657.gif&quot; rel=&quot;nofollow&quot; target=&quot;_NEW&quot;&gt;\nhttp://desibbrg.org/images/48627592875446061657.gif&lt;/a&gt;","torrent":{"xt":"urn:btih:3aeb9c79910530483318ca4c3309cacea0005ed3","amp;dn":"%5BMARATHI%5D+Laganachi+Bedi+-+Drama+x264+MP3+%5BTMB%5D","amp;tr":["udp%3A%2F%2Ftracker.openbittorrent.com%3A80","udp%3A%2F%2Fopen.demonii.com%3A1337","udp%3A%2F%2Ftracker.coppersurfer.tk%3A6969","udp%3A%2F%2Fexodus.desync.com%3A6969"],"infoHash":"3aeb9c79910530483318ca4c3309cacea0005ed3","infoHashBuffer":{"type":"Buffer","data":[58,235,156,121,145,5,48,72,51,24,202,76,51,9,202,206,160,0,94,211]},"announce":[],"urlList":[]}}